<svg width="349" height="32" viewBox="0 0 349 32" fill="none" xmlns="http://www.w3.org/2000/svg">
<path d="M17.8518 31.6017C15.3742 31.6017 13.0236 31.4432 10.8636 31.158C8.70356 30.8727 6.79767 30.3338 5.17766 29.6048C3.55766 28.8758 2.28707 27.8298 1.36589 26.4985C0.444707 25.1673 0 23.4873 0 21.427V21.2052C0 21.2052 0 21.015 0.0317648 20.9516H8.92591C8.92591 20.9516 8.86238 21.1735 8.86238 21.3003C8.86238 21.427 8.86238 21.5538 8.86238 21.7123C8.86238 22.6315 9.2118 23.3605 9.91062 23.8677C10.6094 24.3748 11.5624 24.7552 12.833 24.9454C14.0718 25.1673 15.533 25.2624 17.2483 25.2624C17.9154 25.2624 18.6459 25.2624 19.3765 25.199C20.1071 25.1673 20.806 25.0722 21.5048 24.9771C22.1718 24.882 22.8071 24.7235 23.3471 24.5016C23.8871 24.2798 24.3318 24.0262 24.6495 23.7092C24.9671 23.3922 25.126 23.0119 25.126 22.5364C25.126 21.9025 24.8083 21.427 24.1413 21.0467C23.4742 20.6663 22.553 20.381 21.3777 20.1592C20.2024 19.9373 18.9001 19.7471 17.4706 19.5569C16.0412 19.3667 14.5483 19.1766 12.9918 18.923C11.4353 18.6694 9.94239 18.3208 8.51297 17.9087C7.05179 17.4649 5.74943 16.9261 4.6059 16.1971C3.46236 15.4997 2.54118 14.5805 1.84236 13.4394C1.1753 12.3301 0.825885 10.9671 0.825885 9.35055C0.825885 7.73401 1.23883 6.33935 2.06471 5.16657C2.8906 3.99379 4.03413 3.04289 5.49531 2.25047C6.98826 1.48975 8.73532 0.919202 10.7365 0.53884C12.7377 0.158478 14.9612 0 17.3118 0C19.6624 0 21.9495 0.19017 23.9189 0.570532C25.8883 0.950893 27.5719 1.52144 29.0013 2.28216C30.3989 3.04289 31.4789 3.9938 32.2413 5.13488C33.0036 6.27597 33.3848 7.60723 33.3848 9.16038V9.7943H24.6177V9.44565C24.6177 8.81171 24.3636 8.27287 23.8236 7.79741C23.2836 7.32196 22.5213 6.9099 21.473 6.65633C20.4565 6.37106 19.2177 6.24426 17.7565 6.24426C16.0095 6.24426 14.58 6.37106 13.4365 6.56124C12.293 6.75142 11.4671 7.06839 10.9589 7.44875C10.4189 7.82911 10.1647 8.24117 10.1647 8.71662C10.1647 9.31886 10.5142 9.76262 11.1812 10.1113C11.8483 10.4599 12.7695 10.7135 13.9448 10.9354C15.0883 11.1573 16.3906 11.3475 17.8201 11.5059C19.2495 11.6644 20.7424 11.8863 22.2989 12.1399C23.8554 12.3934 25.3483 12.7104 26.7777 13.1225C28.2072 13.5345 29.5095 14.1051 30.6848 14.7707C31.8283 15.468 32.7495 16.3556 33.4483 17.4332C34.1154 18.5109 34.4648 19.8422 34.4648 21.3954C34.4648 23.836 33.766 25.8329 32.3366 27.3543C30.9072 28.8758 28.9695 29.9535 26.4919 30.6508C24.0142 31.3164 21.1871 31.6651 17.9789 31.6651L17.8518 31.6017Z" fill="#424953"/>
<path d="M59.6863 31.6017C55.6522 31.6017 52.3169 31.0312 49.6804 29.8584C47.0439 28.6856 45.0745 26.974 43.7722 24.7552C42.4698 22.5364 41.8027 19.8422 41.8027 16.7042V0.538834H50.8239V16.2922C50.8239 19.0181 51.5863 21.1418 53.1428 22.6315C54.6992 24.1213 56.8593 24.882 59.6863 24.882C62.5134 24.882 64.6734 24.1213 66.2299 22.6315C67.7864 21.1418 68.5487 19.0181 68.5487 16.2922V0.538834H77.6334V16.7042C77.6334 19.8422 76.9664 22.5364 75.664 24.7552C74.3617 27.0057 72.3922 28.6856 69.724 29.8584C67.0558 31.0312 63.7205 31.6017 59.6863 31.6017Z" fill="#424953"/>
<path d="M86.8447 31.0629V0.538834H110.414C112.415 0.538834 114.194 0.982583 115.687 1.87009C117.18 2.7576 118.355 3.99379 119.213 5.51523C120.071 7.06838 120.484 8.8751 120.484 10.9037C120.484 12.9323 120.039 14.7707 119.181 16.3238C118.324 17.9087 117.148 19.1449 115.624 20.0007C114.099 20.8565 112.352 21.3002 110.319 21.3002H95.8659V31.0312H86.8447V31.0629ZM95.8659 14.6439H107.841C109.175 14.6439 110.192 14.327 110.891 13.693C111.59 13.0591 111.939 12.1399 111.939 10.9671C111.939 10.1747 111.78 9.50904 111.462 8.93849C111.145 8.39965 110.668 7.95589 110.097 7.67062C109.493 7.38535 108.762 7.22686 107.873 7.22686H95.8977V14.6439H95.8659Z" fill="#424953"/>
<path d="M127.028 31.0629V0.538834H158.856V7.22686H136.081V12.3617H155.997V18.8279H136.081V24.3431H159.206V31.0312H126.996L127.028 31.0629Z" fill="#424953"/>
<path d="M167.273 31.0629V0.538834H192.717C194.941 0.538834 196.783 0.98259 198.244 1.9018C199.705 2.82101 200.785 4.02548 201.548 5.51523C202.278 7.00498 202.659 8.65321 202.659 10.4282C202.659 12.3617 202.215 14.1051 201.294 15.6899C200.372 17.2747 199.006 18.5109 197.164 19.4301L203.39 31.0629H193.162L188.079 20.8882H176.326V31.0629H167.305H167.273ZM176.295 14.2319H189.731C190.843 14.2319 191.701 13.9149 192.368 13.2493C193.035 12.5836 193.352 11.7278 193.352 10.6184C193.352 9.92109 193.194 9.28715 192.908 8.78C192.622 8.27285 192.209 7.8608 191.669 7.60722C191.129 7.35365 190.494 7.19516 189.763 7.19516H176.326V14.2002L176.295 14.2319Z" fill="#424953"/>
<path d="M225.975 31.0629V0.538844H240.11L245.351 13.8198C245.573 14.3587 245.859 15.0243 246.145 15.8484C246.431 16.6725 246.717 17.5283 247.003 18.3842C247.289 19.2717 247.543 20.0324 247.765 20.698H248.083C248.274 20.0641 248.496 19.3667 248.782 18.5109C249.068 17.6868 249.354 16.8627 249.671 16.0069C249.989 15.1511 250.243 14.422 250.497 13.7564L255.738 0.475449H269.492V30.9995H260.471V15.2462C260.471 14.6122 260.471 13.9149 260.471 13.1542C260.471 12.3935 260.503 11.6327 260.535 10.9037C260.566 10.1747 260.566 9.54073 260.566 9.00189H260.217C260.026 9.57243 259.804 10.2381 259.55 10.9988C259.296 11.7595 259.01 12.5202 258.788 13.281C258.534 14.0417 258.279 14.7073 258.057 15.2462L251.641 30.9995H243.382L236.933 15.2462C236.648 14.4854 236.362 13.693 236.076 12.9006C235.79 12.1082 235.536 11.3475 235.313 10.6501C235.091 9.95279 234.901 9.41395 234.773 9.00189H234.424C234.424 9.41395 234.488 9.95279 234.488 10.6501C234.488 11.3158 234.488 12.0765 234.519 12.8689C234.519 13.6613 234.519 14.4538 234.519 15.2779V31.0312H225.975V31.0629Z" fill="#424953"/>
<path d="M275.782 31.0629L290.807 0.538834H300.908L315.933 31.0629H306.118L303.799 26.1816H287.44L285.121 31.0629H275.782ZM290.458 19.5569H300.781L298.018 13.3443C297.891 13.0908 297.732 12.6787 297.541 12.1716C297.319 11.6644 297.096 11.0939 296.874 10.5233C296.62 9.95279 296.429 9.41395 296.239 8.93849C296.048 8.46304 295.921 8.08268 295.794 7.8608H295.476C295.254 8.39965 295 9.00189 294.714 9.73091C294.428 10.4599 294.142 11.1256 293.888 11.7595C293.634 12.4251 293.412 12.9323 293.189 13.3443L290.426 19.5569H290.458Z" fill="#424953"/>
<path d="M326.638 31.0629V7.79742H313.392V0.507156H348.968V7.79742H335.722V31.0629H326.638Z" fill="#424953"/>
</svg>
